<svg xmlns="http://www.w3.org/2000/svg" height="134.403" width="88.003"><defs><clipPath id="a" clipPathUnits="userSpaceOnUse"><path d="M0 100.802h66.002V0H0z"/></clipPath></defs><g clip-path="url(#a)" transform="matrix(1.33333 0 0 -1.33333 0 134.403)"><path d="M56.335 91.573c-12.892 12.305-33.773 12.305-46.667 0-12.891-12.297-12.891-32.248 0-44.542 0 0 23.318-21.832 23.318-47.031 0 25.199 23.343 47.03 23.343 47.03 12.897 12.295 12.897 32.246.006 44.543" fill="#fff"/><path d="M47.036 55.278c-.636 3.277.13 6.947.027 10.284-.115 3.756-.713 7.485-.665 11.246.04 3.044.545 6.174-.503 9.091.066.332.134.662.196.995.27 1.463-4.577.69-5.338-.649-.48-.392-.726-.86-.524-1.339.051-.12.097-.243.142-.365-.917-4.485-2.197-8.826-3.668-13.174-.563-1.663-1.244-3.288-1.817-4.946-.815 1.545-1.638 3.071-2.3 4.728-1.923 4.805-3.656 9.661-6 14.285.265 2.14-4.485 1.916-5.422-.044-1.132-2.37-.985-4.763-.612-7.299.42-2.858.493-5.668.527-8.554.067-5.566.502-11.119.585-16.683-.496-.552-.646-1.233-.127-1.925.226-.3.505-.535.8-.768 1.264-1.013 4.9-.15 4.892 1.78-.02 5.77-.436 11.53-.589 17.298-.015.565-.025 1.13-.033 1.694.08-.203.158-.406.24-.608.896-2.245 1.833-4.427 3.06-6.514 1.212-2.068 1.822-4.289 2.522-6.547-.265-.303-.423-.647-.326-.99-.055-.252.1-.41.351-.505.894-.766 2.578-.383 3.514.01.4.168.785.364 1.155.593.483.297 1.236.95 1.02 1.622l-.12.39c.657 1.777.992 3.625 1.351 5.5.381 2 1.095 3.892 1.811 5.786.074-.867.15-1.732.22-2.597.284-3.574.045-7.098.01-10.674a16.226 16.226 0 0 1 .306-3.445c.095-.48.513-2.53.393-2.642-.855-.79-.606-1.759.54-2.01 1.278-.282 2.911.148 3.876 1.038 1.677 1.55.884 3.982.506 5.938" fill="#6bc6b3"/></g></svg>