<svg xmlns="http://www.w3.org/2000/svg" viewBox="0 0 610.165 465.997" height="80" width="100"><defs><clipPath id="a" clipPathUnits="userSpaceOnUse"><path d="M0 349.498h457.624V0H0z"/></clipPath></defs><g clip-path="url(#a)" transform="matrix(1.33333 0 0 -1.33333 0 465.997)"><path d="M440.706 267.005s-4.186 31.857-17.207 45.81c-16.51 18.37-34.88 18.485-43.367 19.531-60.574 4.651-151.378 4.651-151.378 4.651h-.233s-90.803 0-151.378-4.65c-8.487-1.047-26.857-1.163-43.367-19.533-12.905-14.068-17.207-45.809-17.207-45.809s-4.069-37.32-4.069-74.642v-34.996c0-37.32 4.302-74.643 4.302-74.643s4.185-31.857 17.207-45.808c16.51-18.37 38.02-17.789 47.67-19.766 34.646-3.487 147.075-4.65 147.075-4.65s90.92.116 151.494 4.766c8.487 1.047 26.857 1.163 43.367 19.533 12.905 13.952 17.207 45.81 17.207 45.81s4.302 37.32 4.302 74.642v34.996c-.116 37.437-4.418 74.758-4.418 74.758" fill="#63d1bb"/><path d="M440.706 267.005s-4.186 31.857-17.207 45.81c-16.51 18.37-34.88 18.485-43.367 19.531-60.574 4.651-151.378 4.651-151.378 4.651h-.233s-90.803 0-151.378-4.65c-8.487-1.047-26.857-1.163-43.367-19.533-12.905-14.068-17.207-45.809-17.207-45.809s-4.069-37.32-4.069-74.642v-34.996c0-37.32 4.302-74.643 4.302-74.643s4.185-31.857 17.207-45.808c16.51-18.37 38.02-17.789 47.67-19.766 34.646-3.487 147.075-4.65 147.075-4.65s90.92.116 151.494 4.766c8.487 1.047 26.857 1.163 43.367 19.533 12.905 13.952 17.207 45.81 17.207 45.81s4.302 37.32 4.302 74.642v34.996c-.116 37.437-4.418 74.758-4.418 74.758z" fill="none" stroke="#fff" stroke-width="25" stroke-miterlimit="10"/></g><path d="M232.92 124.717v216.41l180.29-108.205z" fill="#fff"/></svg>